<?xml version="1.0" standalone="no"?>
<!DOCTYPE svg PUBLIC "-//W3C//DTD SVG 20010904//EN"
 "http://www.w3.org/TR/2001/REC-SVG-20010904/DTD/svg10.dtd">
<svg version="1.0" xmlns="http://www.w3.org/2000/svg"
 width="1024.000000pt" height="1024.000000pt" viewBox="0 0 1024.000000 1024.000000"
 preserveAspectRatio="xMidYMid meet">
<metadata>
Created by potrace 1.11, written by Peter Selinger 2001-2013
</metadata>
<g transform="translate(0.000000,1024.000000) scale(0.100000,-0.100000)"
fill="#000000" stroke="none">
<path d="M2528 9505 c-2 -2 -48 -6 -103 -10 -438 -29 -839 -137 -1183 -320
-75 -40 -230 -138 -271 -170 -9 -8 -45 -37 -81 -65 -36 -28 -102 -87 -148
-131 -365 -355 -577 -769 -686 -1344 -2 -11 -9 -54 -14 -95 -11 -73 -14 -106
-28 -255 -11 -118 -7 -424 6 -525 7 -52 13 -102 14 -110 1 -8 5 -31 9 -50 4
-19 9 -46 12 -60 28 -152 126 -463 191 -608 13 -29 24 -55 24 -57 0 -10 120
-251 156 -315 124 -219 347 -525 604 -830 62 -73 210 -222 430 -432 102 -97
219 -209 261 -249 42 -41 167 -162 278 -269 112 -107 238 -229 281 -270 258
-250 529 -512 575 -555 29 -27 152 -147 275 -265 240 -232 276 -267 576 -557
110 -105 236 -226 280 -270 294 -283 538 -519 594 -572 36 -35 112 -109 170
-165 147 -143 206 -187 270 -203 44 -11 161 -12 193 -1 97 30 97 30 448 369
302 291 340 328 555 535 110 105 224 216 255 245 31 30 151 145 265 255 115
111 238 230 274 264 36 34 157 151 270 260 113 109 239 230 280 270 72 69 355
341 619 596 190 183 250 241 471 454 560 538 833 856 1088 1265 213 343 379
735 436 1029 2 11 9 41 14 66 9 40 17 86 28 170 17 135 22 401 10 580 -37 540
-193 1013 -456 1385 -40 57 -51 71 -140 174 -292 340 -692 585 -1175 721 -82
23 -285 66 -355 75 -25 3 -61 7 -80 10 -168 22 -237 27 -425 29 -227 4 -367
-9 -555 -49 -14 -3 -34 -7 -46 -9 -12 -2 -52 -14 -90 -26 -38 -12 -78 -23 -88
-26 -101 -20 -465 -185 -618 -279 -196 -120 -572 -386 -668 -471 -14 -12 -63
-55 -110 -95 -47 -39 -131 -115 -188 -168 -57 -53 -107 -96 -112 -96 -5 0 -56
43 -112 96 -189 177 -450 390 -613 499 -27 19 -52 36 -55 40 -7 7 -212 144
-225 149 -5 2 -28 16 -50 30 -22 14 -49 32 -60 39 -89 56 -463 225 -520 236
-5 1 -15 5 -21 8 -6 4 -21 9 -35 12 -13 3 -62 16 -109 30 -47 13 -102 27 -124
30 -21 4 -41 8 -45 10 -7 4 -50 12 -126 21 -27 4 -61 9 -75 11 -26 6 -417 13
-422 9z m387 -740 c434 -74 842 -286 1335 -695 229 -190 348 -304 603 -579 45
-48 112 -90 159 -99 18 -4 74 -7 123 -7 136 1 171 21 332 193 214 228 435 429
668 610 290 225 525 363 804 471 152 59 278 92 416 108 106 13 445 5 545 -11
14 -3 45 -7 70 -10 56 -8 98 -15 130 -22 14 -3 36 -8 50 -11 61 -11 214 -59
310 -98 400 -161 663 -393 824 -729 111 -233 181 -481 201 -721 3 -33 8 -76
11 -95 7 -51 7 -335 0 -405 -4 -33 -12 -87 -17 -120 -6 -33 -13 -71 -15 -85
-3 -14 -7 -33 -10 -42 -3 -9 -7 -27 -9 -40 -8 -41 -66 -210 -102 -298 -132
-321 -354 -661 -661 -1010 -36 -41 -163 -172 -282 -290 -187 -186 -298 -295
-710 -690 -41 -40 -174 -168 -294 -284 -120 -116 -245 -236 -276 -266 -90 -86
-480 -462 -623 -600 -151 -146 -173 -167 -463 -446 -120 -116 -247 -238 -280
-270 -34 -33 -157 -151 -274 -264 -117 -113 -244 -235 -282 -273 -39 -37 -74
-67 -78 -67 -7 0 -83 71 -350 330 -37 36 -159 153 -271 261 -112 109 -236 228
-275 265 -201 194 -509 491 -566 546 -36 35 -154 149 -263 253 -108 105 -234
226 -280 270 -91 88 -445 429 -560 540 -40 39 -164 158 -276 265 -236 227
-635 623 -700 695 -263 294 -484 611 -616 885 -54 112 -82 179 -89 207 -4 16
-10 33 -14 38 -14 18 -74 233 -95 340 -25 128 -35 420 -21 565 7 61 10 88 22
185 2 22 9 63 14 90 6 28 12 59 14 70 25 129 114 373 189 515 160 303 419 523
792 673 107 43 265 93 322 103 15 2 48 9 73 14 25 5 68 12 95 15 28 4 61 8 75
11 14 2 72 7 130 10 58 4 106 7 107 9 6 5 302 -4 338 -10z"/>
</g>
</svg>
